<svg width="24" height="23" viewBox="0 0 24 23" fill="none" xmlns="http://www.w3.org/2000/svg">
<path d="M3.08838 21.886C2.70251 22.2522 2.09749 22.2522 1.71162 21.886L0.764313 20.987C0.348816 20.5927 0.348817 19.9306 0.764314 19.5363L8.83569 11.8763C9.25118 11.482 9.25118 10.82 8.83569 10.4256L0.764313 2.76571C0.348816 2.37139 0.348817 1.70932 0.764314 1.315L1.71162 0.415982C2.09749 0.0497853 2.70251 0.0497859 3.08838 0.415982L11.3116 8.22005C11.6975 8.58624 12.3025 8.58624 12.6884 8.22004L20.9116 0.415981C21.2975 0.049785 21.9025 0.0497861 22.2884 0.415983L23.2357 1.315C23.6512 1.70932 23.6512 2.37139 23.2357 2.76571L15.1643 10.4256C14.7488 10.82 14.7488 11.482 15.1643 11.8763L23.2357 19.5363C23.6512 19.9306 23.6512 20.5927 23.2357 20.987L22.2884 21.886C21.9025 22.2522 21.2975 22.2522 20.9116 21.886L12.6884 14.0819C12.3025 13.7157 11.6975 13.7157 11.3116 14.0819L3.08838 21.886Z" fill="#575848"/>
</svg>
