<svg width="29" height="38" viewBox="0 0 29 38" fill="none" xmlns="http://www.w3.org/2000/svg">
<path fill-rule="evenodd" clip-rule="evenodd" d="M5.59688 4.44132C6.39228 4.01995 7.25144 3.64474 8.17436 3.3157C9.87357 2.71512 11.8951 2.41483 14.2388 2.41483C17.5494 2.41483 20.1714 3.08133 22.105 4.41434C24.0386 5.74734 25.0054 7.62967 25.0054 10.0613C25.0054 11.5408 24.6978 12.8225 24.0826 13.9065C23.4673 14.9905 22.6324 15.8767 21.5777 16.5652C21.5021 16.6153 21.4258 16.6643 21.3488 16.7125C20.3712 17.3233 19.2813 17.7782 18.0791 18.0771C18.0734 18.0785 18.0677 18.0799 18.0621 18.0813V18.2132C18.0733 18.2146 18.0845 18.216 18.0957 18.2174C19.4075 18.3838 20.5574 18.6721 21.5455 19.0822C22.4868 19.4729 23.2812 19.9743 23.9288 20.5862C25.2764 21.846 25.9502 23.5305 25.9502 25.6399C25.9502 27.5149 25.4888 29.1922 24.566 30.6717C23.6578 32.1512 22.2515 33.3157 20.3472 34.1653C18.4429 35.0149 15.9893 35.4397 12.9864 35.4397C11.2139 35.4397 9.55863 35.2932 8.02055 35.0003C6.49711 34.722 5.06156 34.2898 3.71391 33.7039V27.9251C4.41703 28.2841 5.13733 28.5992 5.87483 28.8704C6.5816 29.1303 7.30417 29.3499 8.04252 29.5291C9.55131 29.8806 10.9576 30.0564 12.2613 30.0564C14.6929 30.0564 16.3921 29.6389 17.3589 28.804C18.3404 27.9544 18.8311 26.7679 18.8311 25.2444C18.8311 24.3509 18.604 23.5965 18.1499 22.9812C17.6958 22.366 16.9048 21.8972 15.7769 21.575C14.6636 21.2527 13.1036 21.0916 11.0967 21.0916H8.65775V15.8841H11.1407C13.1182 15.8841 14.6197 15.701 15.6451 15.3347C16.6851 14.9539 17.3882 14.4412 17.7544 13.7967C18.1353 13.1375 18.3257 12.3904 18.3257 11.5555C18.3257 10.4129 17.9742 9.51932 17.271 8.87479C16.5679 8.23026 15.396 7.90799 13.7554 7.90799C12.73 7.90799 11.7925 8.03983 10.9429 8.3035C10.1079 8.55252 9.35356 8.86014 8.67973 9.22635C8.0059 9.57791 7.41264 9.92215 6.89994 10.2591L3.75785 5.57889C4.02325 5.38755 4.29808 5.20304 4.58234 5.02536C4.90813 4.82171 5.24631 4.62703 5.59688 4.44132ZM15.9454 27.1695C16.3684 26.803 16.6702 26.2603 16.6702 25.2444C16.6702 24.7322 16.5469 24.4481 16.4113 24.2645C16.3565 24.1902 16.0839 23.9101 15.1832 23.6528L15.176 23.6507C14.3499 23.4115 13.0255 23.2525 11.0967 23.2525H6.49683V13.7231H11.1407C13.0311 13.7231 14.2349 13.5419 14.9105 13.3025C15.6922 13.0148 15.8612 12.7544 15.8756 12.7291L15.8795 12.7224L15.8834 12.7156C16.0563 12.4163 16.1648 12.0486 16.1648 11.5555C16.1648 10.8884 15.9798 10.6226 15.8108 10.4677C15.7089 10.3742 15.2139 10.0689 13.7554 10.0689C12.9147 10.0689 12.1967 10.177 11.5834 10.3673L11.572 10.3709L11.5605 10.3743C10.8502 10.5861 10.2373 10.8393 9.71159 11.125L9.69552 11.1337L9.67929 11.1422C9.0552 11.4678 8.52662 11.7759 8.08667 12.065L6.29851 13.24L0.798828 5.0482L2.49414 3.826C3.94184 2.78231 5.60075 1.93911 7.44868 1.28028L7.45424 1.27829C9.44244 0.575566 11.7195 0.253906 14.2388 0.253906C17.8144 0.253906 20.9171 0.970743 23.3315 2.63522C25.8744 4.38828 27.1663 6.94904 27.1663 10.0613C27.1663 11.8446 26.7935 13.508 25.9619 14.9732C25.3591 16.0351 24.5873 16.9522 23.6572 17.7163C24.2951 18.0841 24.8814 18.5139 25.4088 19.0117C27.255 20.7398 28.1112 23.0285 28.1112 25.6399C28.1112 27.885 27.5537 29.962 26.4034 31.8089C25.2245 33.7259 23.4459 35.149 21.2277 36.1387C18.9523 37.1539 16.1694 37.6006 12.9864 37.6006C11.0987 37.6006 9.30951 37.445 7.62445 37.1246C5.94983 36.8181 4.35728 36.3399 2.85229 35.6856L1.55299 35.1207V24.3953L4.69664 26.0006C5.91981 26.6251 7.20072 27.1003 8.54279 27.4268C9.916 27.7462 11.1528 27.8955 12.2613 27.8955C14.5801 27.8955 15.596 27.4702 15.9454 27.1695Z" fill="black"/>
</svg>
