<svg width="22" height="38" viewBox="0 0 22 38" fill="none" xmlns="http://www.w3.org/2000/svg">
<path fill-rule="evenodd" clip-rule="evenodd" d="M21.7499 37.1607H10.6385V16.4109C10.6385 16.0025 10.6429 15.5271 10.6517 14.9861L6.59925 18.2425L0.617188 10.775L13.2527 0.714844H21.7499V37.1607ZM12.8214 14.5213C12.8067 15.2683 12.7994 15.8982 12.7994 16.4109V34.9998H19.5889V2.87576H14.0079L3.65876 11.1155L6.93269 15.2024L10.6241 12.2361C10.6581 12.2068 10.6922 12.1773 10.7265 12.1474C10.739 12.1366 10.7514 12.1258 10.7639 12.115C10.7644 12.1145 10.7649 12.114 10.7654 12.1136C11.1492 11.7791 11.5562 11.4098 11.9864 11.0056C12.4844 10.5369 12.814 10.2073 12.9752 10.0169C12.9486 10.602 12.922 11.2535 12.8954 11.9714C12.8954 11.972 12.8953 11.9726 12.8953 11.9732C12.8926 12.0455 12.89 12.1185 12.8873 12.1922C12.8754 12.5123 12.8648 12.8301 12.8553 13.1454C12.8414 13.6092 12.8301 14.0678 12.8214 14.5213Z" fill="black"/>
</svg>
