<svg width="30" height="38" viewBox="0 0 30 38" fill="none" xmlns="http://www.w3.org/2000/svg">
<path fill-rule="evenodd" clip-rule="evenodd" d="M29.1441 30.503H25.2769V37.1607H14.3193V30.503H0.608398V22.9536L15.7091 0.714844H25.2769V20.9077H29.1441V30.503ZM16.4803 28.3421V34.9998H23.116V28.3421H26.9832V23.0686H23.116V2.87576H16.8538L2.76932 23.618V28.3421H16.4803ZM8.74588 23.0686H16.4803V17.6194C16.4803 17.1067 16.4876 16.4988 16.5022 15.7957L16.5901 13.6863C16.6013 13.4178 16.6125 13.1611 16.6237 12.9162C16.6239 12.9119 16.6241 12.9077 16.6243 12.9035C16.6256 12.8738 16.627 12.8443 16.6283 12.815C16.6449 12.4571 16.6614 12.125 16.678 11.8186C16.7171 11.3235 16.7446 10.9616 16.7605 10.733C16.7625 10.7047 16.7643 10.6783 16.7659 10.6541H16.5901C16.4152 11.0315 16.2346 11.4031 16.0481 11.7689C16.0455 11.774 16.0429 11.7791 16.0403 11.7842C15.9325 11.9953 15.8228 12.2046 15.7112 12.4119C15.4966 12.8003 15.257 13.2029 14.9925 13.6197C14.8779 13.8004 14.7586 13.9837 14.6346 14.1697L8.74588 23.0686ZM14.3193 18.5619L12.767 20.9077H14.3193V18.5619Z" fill="black"/>
</svg>
