<svg width="28" height="38" viewBox="0 0 28 38" fill="none" xmlns="http://www.w3.org/2000/svg">
<path fill-rule="evenodd" clip-rule="evenodd" d="M0.840233 15.564L0.841335 15.5568C1.14486 13.5759 1.66679 11.6971 2.41328 9.92751C3.19201 8.06646 4.28902 6.41496 5.69849 4.98738C7.16461 3.48745 8.98851 2.35537 11.1107 1.55859C13.297 0.722927 15.8424 0.341797 18.6878 0.341797C19.3762 0.341797 20.1544 0.373449 21.0167 0.433615C21.9213 0.481085 22.7387 0.570193 23.4396 0.717738L25.1553 1.07895V10.9607L22.5201 10.3678C22.0229 10.2559 21.4742 10.1657 20.8713 10.1002L20.8452 10.0974L20.8192 10.0939C20.2538 10.0185 19.6901 9.98102 19.1272 9.98102C16.6466 9.98102 15.0175 10.3838 14.0191 10.9615C13.2839 11.3929 12.7236 11.9206 12.3111 12.5573C13.4643 12.1454 14.7314 11.9653 16.073 11.9653C18.2608 11.9653 20.2747 12.4374 22.035 13.4654C23.802 14.4825 25.15 15.9604 26.0735 17.8256C27.0044 19.7056 27.4185 21.8915 27.4185 24.2996C27.4185 26.8916 26.9173 29.2498 25.8226 31.2957C24.7332 33.3316 23.1656 34.9211 21.1496 36.0191L21.1436 36.0224C19.1415 37.1045 16.8395 37.6006 14.3152 37.6006C12.4253 37.6006 10.6251 37.279 8.93471 36.6168L8.92575 36.6133L8.91682 36.6097C7.19023 35.9155 5.68061 34.8639 4.4005 33.4785C3.09344 32.0641 2.11862 30.3306 1.43784 28.3381L1.43607 28.3329C0.741407 26.2828 0.420898 23.943 0.420898 21.3553C0.420898 19.4063 0.560141 17.4779 0.83918 15.5712L0.840233 15.564ZM20.951 15.3347C19.574 14.5291 17.948 14.1263 16.073 14.1263C14.8719 14.1263 13.8245 14.2947 12.9309 14.6316C12.3192 14.8522 11.7693 15.1278 11.2812 15.4582C11.0563 15.6105 10.8445 15.7744 10.6458 15.95C10.0305 16.5066 9.51785 17.1438 9.1077 17.8616H8.82205C8.82478 17.8087 8.82767 17.7559 8.83074 17.7033C8.87147 17.0048 8.94232 16.3372 9.04329 15.7007C9.11161 15.2699 9.19373 14.8534 9.28964 14.4511C9.29188 14.4417 9.29412 14.4324 9.29637 14.423C9.31307 14.3535 9.3302 14.2844 9.34773 14.2158C9.48968 13.66 9.65868 13.1321 9.85477 12.6321C10.4554 11.1233 11.4807 9.94412 12.9309 9.09451C14.3958 8.2449 16.4612 7.8201 19.1272 7.8201C19.696 7.8201 20.2647 7.85281 20.8335 7.91825C20.9239 7.92865 21.0143 7.93988 21.1048 7.95193C21.7786 8.02518 22.4085 8.12772 22.9944 8.25955V2.83231C22.4378 2.71512 21.7346 2.63455 20.885 2.59061C20.0501 2.53201 19.3177 2.50272 18.6878 2.50272C16.0218 2.50272 13.7513 2.8616 11.8763 3.57938C10.0013 4.2825 8.45584 5.25662 7.24002 6.50174C6.0242 7.73221 5.07938 9.15311 4.40555 10.7644C3.73172 12.3611 3.25565 14.0677 2.97733 15.8841C2.71365 17.6858 2.58182 19.5096 2.58182 21.3553C2.58182 23.7722 2.88211 25.867 3.4827 27.6394C4.08328 29.3972 4.91824 30.8548 5.98758 32.012C7.05692 33.1692 8.30203 34.0335 9.72293 34.6048C11.1438 35.1614 12.6746 35.4397 14.3152 35.4397C16.5564 35.4397 18.49 35.0003 20.116 34.1214C21.7566 33.2278 23.0237 31.9461 23.9173 30.2762C24.8108 28.6062 25.2576 26.614 25.2576 24.2996C25.2576 22.1316 24.8841 20.2932 24.137 18.7845C23.3899 17.2757 22.3279 16.1258 20.951 15.3347ZM11.6785 20.0149C10.9314 20.4544 10.3528 21.0183 9.94266 21.7068C9.5325 22.3806 9.32742 23.0764 9.32742 23.7942C9.32742 24.5413 9.42996 25.281 9.63504 26.0135C9.84012 26.7459 10.1477 27.4124 10.5579 28.013C10.968 28.6136 11.4734 29.097 12.074 29.4632C12.6892 29.8294 13.3924 30.0125 14.1834 30.0125C15.5164 30.0125 16.6004 29.5584 17.4353 28.6502C18.2703 27.742 18.6878 26.3211 18.6878 24.3875C18.6878 22.8201 18.3216 21.5896 17.5891 20.6961C16.8714 19.7879 15.7801 19.3338 14.3152 19.3338C13.3191 19.3338 12.4402 19.5608 11.6785 20.0149ZM13.1886 27.6118C13.4338 27.7556 13.7451 27.8516 14.1834 27.8516C14.9662 27.8516 15.4543 27.6122 15.8445 27.1877C16.153 26.8521 16.5269 26.074 16.5269 24.3875C16.5269 23.1418 16.2368 22.455 15.9179 22.0659L15.9057 22.0511L15.8938 22.036C15.6917 21.7803 15.3111 21.4947 14.3152 21.4947C13.6595 21.4947 13.1723 21.6402 12.785 21.871L12.7741 21.8775C12.314 22.1482 12.0083 22.4616 11.7991 22.8128L11.7939 22.8216L11.7885 22.8304C11.5634 23.2003 11.4883 23.5114 11.4883 23.7942C11.4883 24.3408 11.563 24.8846 11.7159 25.4308C11.8605 25.947 12.071 26.3969 12.3424 26.7943C12.5831 27.1467 12.8632 27.4114 13.1886 27.6118Z" fill="black"/>
</svg>
