<svg width="29" height="38" viewBox="0 0 29 38" fill="none" xmlns="http://www.w3.org/2000/svg">
<path fill-rule="evenodd" clip-rule="evenodd" d="M28.4183 37.1612H1.64043V29.3879L10.323 20.6107C11.9336 18.9565 13.2081 17.5951 14.1555 16.5205L14.1567 16.5191C15.0761 15.478 15.6562 14.6217 15.9788 13.9443L15.9847 13.9317L15.9909 13.9193C16.2951 13.3009 16.45 12.6396 16.45 11.907C16.45 11.0351 16.2162 10.7689 16.1089 10.6748L16.0913 10.6593L16.0741 10.6435C15.8605 10.4478 15.4834 10.2447 14.6998 10.2447C13.7983 10.2447 12.9124 10.4487 12.0212 10.8831C11.0382 11.3623 9.95844 12.0713 8.7826 13.0444L7.13406 14.4087L0.678711 6.76222L2.30715 5.36642C3.29016 4.52383 4.32592 3.72967 5.41376 2.98373L5.41964 2.97969L5.42555 2.9757C6.66043 2.14085 8.05536 1.49211 9.58929 1.01317C11.2336 0.489416 13.1126 0.253906 15.1832 0.253906C17.5472 0.253906 19.705 0.680502 21.5805 1.62648C23.4218 2.54783 24.9075 3.84504 25.9579 5.53127C27.0094 7.20437 27.5174 9.08703 27.5174 11.116C27.5174 13.1823 27.1055 15.1246 26.25 16.9071C25.4342 18.6066 24.2714 20.2347 22.8053 21.7971C21.4276 23.2805 19.7786 24.9059 17.8652 26.6713L17.3817 27.1265H28.4183V37.1612ZM12.2608 29.2874V28.9798L16.3917 25.0906C18.2813 23.3474 19.8927 21.7581 21.2257 20.3225C22.5733 18.887 23.5987 17.4368 24.3018 15.972C25.005 14.5071 25.3565 12.8885 25.3565 11.116C25.3565 9.46072 24.9464 7.98123 24.1261 6.67752C23.3057 5.35916 22.1339 4.31912 20.6104 3.5574C19.1016 2.79568 17.2926 2.41483 15.1832 2.41483C13.2642 2.41483 11.6163 2.63455 10.2393 3.07401C8.87703 3.49881 7.67586 4.06277 6.63582 4.7659C6.21494 5.05451 5.80269 5.35052 5.39908 5.65393C4.95381 5.98866 4.51906 6.3324 4.09482 6.68516C3.96674 6.79165 3.83962 6.89897 3.71346 7.00711L7.40486 11.3797C8.67928 10.325 9.90242 9.51199 11.0743 8.9407C12.2462 8.36942 13.4547 8.08377 14.6998 8.08377C15.8863 8.08377 16.8311 8.40604 17.5343 9.05057C18.252 9.68045 18.6109 10.6326 18.6109 11.907C18.6109 12.9617 18.3839 13.9505 17.9298 14.8733C17.4903 15.7962 16.7725 16.8216 15.7764 17.9495C14.795 19.0628 13.4913 20.4544 11.8653 22.1243L3.80135 30.2762V35.0003H26.2574V29.2874H12.2608Z" fill="black"/>
</svg>
