<svg width="26" height="38" viewBox="0 0 26 38" fill="none" xmlns="http://www.w3.org/2000/svg">
<path fill-rule="evenodd" clip-rule="evenodd" d="M2.83426 19.2454L4.04276 2.87576H21.4671V8.6326H9.99734L9.40408 14.9388C9.90213 14.8362 10.4441 14.7337 11.0301 14.6311C11.2032 14.6008 11.3967 14.575 11.6108 14.5537C12.1212 14.5028 12.7479 14.4773 13.491 14.4773C15.4539 14.4773 17.1971 14.8509 18.7205 15.5979C20.2586 16.345 21.4671 17.4436 22.346 18.8938C23.2249 20.344 23.6643 22.1311 23.6643 24.2552C23.6643 26.5696 23.1809 28.5691 22.2141 30.2537C21.262 31.9236 19.8338 33.2054 17.9295 34.0989C16.0398 34.9925 13.6814 35.4392 10.8543 35.4392C9.16971 35.4392 7.58035 35.2928 6.08621 34.9998C4.60672 34.7215 3.31033 34.2893 2.19705 33.7034V27.8367C2.84331 28.1768 3.56362 28.4874 4.35797 28.7683C4.93201 28.9713 5.54471 29.1588 6.19608 29.3308C7.76346 29.7263 9.23563 29.9241 10.6126 29.9241C11.9602 29.9241 13.0955 29.7483 14.0183 29.3968C14.9412 29.0305 15.637 28.4739 16.1057 27.7268C16.5891 26.9651 16.8308 25.9983 16.8308 24.8264C16.8308 23.2591 16.3035 22.0579 15.2488 21.2229C14.1941 20.388 12.5755 19.9705 10.3929 19.9705C9.55789 19.9705 8.68631 20.0511 7.77811 20.2122C6.88455 20.3733 6.13748 20.5345 5.5369 20.6956L2.83426 19.2454ZM8.15865 22.3393C7.30152 22.494 6.61882 22.6427 6.09685 22.7827L5.26975 23.0046L0.575876 20.4859L2.03549 0.714844H23.628V10.7935H11.9645L11.8164 12.368C12.3275 12.3319 12.8891 12.3164 13.491 12.3164C15.7305 12.3164 17.8065 12.7437 19.6683 13.6559C21.5756 14.5832 23.0982 15.9657 24.194 17.7738C25.3234 19.6374 25.8253 21.8351 25.8253 24.2552C25.8253 26.8734 25.2765 29.2577 24.0899 31.3267C22.8967 33.4179 21.1162 34.9898 18.851 36.0535C16.59 37.1221 13.8932 37.6002 10.8543 37.6002C9.0476 37.6002 7.32068 37.4433 5.67837 37.1219C4.03069 36.8112 2.52544 36.3182 1.19061 35.6156L0.0361328 35.008V24.2574L3.20349 25.9245C4.13669 26.4156 5.3057 26.8599 6.73656 27.2386C8.15555 27.5958 9.44483 27.7632 10.6126 27.7632C11.7777 27.7632 12.6302 27.6105 13.2349 27.3828C13.7782 27.1646 14.0827 26.8853 14.2753 26.5783L14.2812 26.5689C14.4881 26.2429 14.6699 25.7089 14.6699 24.8264C14.6699 23.7968 14.3555 23.2718 13.9075 22.9172C13.4081 22.5218 12.3694 22.1314 10.3929 22.1314C9.69769 22.1314 8.95387 22.1984 8.15865 22.3393Z" fill="black"/>
</svg>
