<svg width="21" height="19" viewBox="0 0 21 19" fill="none" xmlns="http://www.w3.org/2000/svg">
<path d="M10.5 0L12.8574 7.25532H20.4861L14.3143 11.7394L16.6717 18.9947L10.5 14.5106L4.32825 18.9947L6.68565 11.7394L0.513906 7.25532H8.1426L10.5 0Z" fill="#F0FA00"/>
<path d="M10.5 0.809018L12.6196 7.33258L12.6758 7.50532H12.8574H19.7167L14.1674 11.5371L14.0205 11.6439L14.0766 11.8166L16.1962 18.3402L10.6469 14.3084L10.5 14.2016L10.3531 14.3084L4.80378 18.3402L6.92342 11.8166L6.97954 11.6439L6.8326 11.5371L1.28333 7.50532H8.1426H8.32424L8.38037 7.33258L10.5 0.809018Z" stroke="black" stroke-opacity="0.5" stroke-width="0.5"/>
</svg>
